{
  "accessors": [
    {
      "bufferView": 2,
      "componentType": 5126,
      "count": 4332,
      "max": [
        1.894352912902832,
        0.9953488111495972,
        0.28337618708610535
      ],
      "min": [
        -1.894352912902832,
        -0.9933308959007263,
        -0.6700321435928345
      ],
      "type": "VEC3"
    },
    {
      "bufferView": 2,
      "byteOffset": 51984,
      "componentType": 5126,
      "count": 4332,
      "max": [
        1.0,
        1.0,
        1.0
      ],
      "min": [
        -1.0,
        -1.0,
        -1.0
      ],
      "type": "VEC3"
    },
    {
      "bufferView": 1,
      "componentType": 5126,
      "count": 4332,
      "max": [
        0.36161747574806213,
        0.8955737352371216
      ],
      "min": [
        0.008156903088092804,
        0.04396750032901764
      ],
      "type": "VEC2"
    },
    {
      "bufferView": 0,
      "componentType": 5125,
      "count": 19437,
      "type": "SCALAR"
    },
    {
      "bufferView": 2,
      "byteOffset": 103968,
      "componentType": 5126,
      "count": 14695,
      "max": [
        1.8946166038513184,
        0.9953488111495972,
        0.33970779180526733
      ],
      "min": [
        -1.8946166038513184,
        -0.9921872615814209,
        -0.4712172746658325
      ],
      "type": "VEC3"
    },
    {
      "bufferView": 2,
      "byteOffset": 280308,
      "componentType": 5126,
      "count": 14695,
      "max": [
        0.999907374382019,
        0.9999851584434509,
        1.0
      ],
      "min": [
        -0.999907374382019,
        -0.9986464381217957,
        -1.0
      ],
      "type": "VEC3"
    },
    {
      "bufferView": 1,
      "byteOffset": 34656,
      "componentType": 5126,
      "count": 14695,
      "max": [
        0.966819703578949,
        0.5407488346099854
      ],
      "min": [
        0.01640641689300537,
        0.01261928677558899
      ],
      "type": "VEC2"
    },
    {
      "bufferView": 0,
      "byteOffset": 77748,
      "componentType": 5125,
      "count": 68232,
      "type": "SCALAR"
    },
    {
      "bufferView": 2,
      "byteOffset": 456648,
      "componentType": 5126,
      "count": 762,
      "max": [
        0.7677717208862305,
        -0.023630619049072266,
        -0.12477821111679077
      ],
      "min": [
        -0.76777184009552,
        -0.3256664276123047,
        -0.14803457260131836
      ],
      "type": "VEC3"
    },
    {
      "bufferView": 2,
      "byteOffset": 465792,
      "componentType": 5126,
      "count": 762,
      "max": [
        0.995097815990448,
        0.9979710578918457,
        0.9858372807502747
      ],
      "min": [
        -0.9950980544090271,
        -0.9959458708763123,
        -0.17039602994918823
      ],
      "type": "VEC3"
    },
    {
      "bufferView": 1,
      "byteOffset": 152216,
      "componentType": 5126,
      "count": 762,
      "max": [
        0.8566246032714844,
        0.3384597599506378
      ],
      "min": [
        0.8402722477912903,
        0.14073976874351501
      ],
      "type": "VEC2"
    },
    {
      "bufferView": 0,
      "byteOffset": 350676,
      "componentType": 5125,
      "count": 3564,
      "type": "SCALAR"
    },
    {
      "bufferView": 2,
      "byteOffset": 474936,
      "componentType": 5126,
      "count": 25,
      "max": [
        0.010751773603260517,
        0.9721366167068481,
        -0.12254953384399414
      ],
      "min": [
        -0.009218974970281124,
        0.9693232774734497,
        -0.1423211395740509
      ],
      "type": "VEC3"
    },
    {
      "bufferView": 2,
      "byteOffset": 475236,
      "componentType": 5126,
      "count": 25,
      "max": [
        0.003075605258345604,
        0.9905007481575012,
        -0.13750740885734558
      ],
      "min": [
        -0.0029842809308320284,
        0.9896142482757568,
        -0.14374865591526031
      ],
      "type": "VEC3"
    },
    {
      "bufferView": 1,
      "byteOffset": 158312,
      "componentType": 5126,
      "count": 25,
      "max": [
        0.07490338385105133,
        0.27730125188827515
      ],
      "min": [
        0.0729011669754982,
        0.27530473470687866
      ],
      "type": "VEC2"
    },
    {
      "bufferView": 0,
      "byteOffset": 364932,
      "componentType": 5125,
      "count": 96,
      "type": "SCALAR"
    },
    {
      "bufferView": 2,
      "byteOffset": 475536,
      "componentType": 5126,
      "count": 2841,
      "max": [
        1.8958337306976318,
        1.9887992143630981,
        0.7560903429985046
      ],
      "min": [
        -1.8958338499069214,
        -0.007729117292910814,
        -0.00686073862016201
      ],
      "type": "VEC3"
    },
    {
      "bufferView": 2,
      "byteOffset": 509628,
      "componentType": 5126,
      "count": 2841,
      "max": [
        1.0,
        1.0,
        1.0
      ],
      "min": [
        -1.0,
        -0.9999974370002747,
        -1.0
      ],
      "type": "VEC3"
    },
    {
      "bufferView": 1,
      "byteOffset": 158512,
      "componentType": 5126,
      "count": 2841,
      "max": [
        0.9681560397148132,
        0.9795209169387817
      ],
      "min": [
        0.06268386542797089,
        0.017591848969459534
      ],
      "type": "VEC2"
    },
    {
      "bufferView": 0,
      "byteOffset": 365316,
      "componentType": 5125,
      "count": 15195,
      "type": "SCALAR"
    },
    {
      "bufferView": 2,
      "byteOffset": 543720,
      "componentType": 5126,
      "count": 3690,
      "max": [
        1.8425065279006958,
        1.93612539768219,
        0.6268070936203003
      ],
      "min": [
        -1.842506766319275,
        0.04494450241327286,
        0.24204419553279877
      ],
      "type": "VEC3"
    },
    {
      "bufferView": 2,
      "byteOffset": 588000,
      "componentType": 5126,
      "count": 3690,
      "max": [
        0.9997594952583313,
        0.998674213886261,
        1.0
      ],
      "min": [
        -0.9997595548629761,
        -0.9987744688987732,
        -0.9999998211860657
      ],
      "type": "VEC3"
    },
    {
      "bufferView": 1,
      "byteOffset": 181240,
      "componentType": 5126,
      "count": 3690,
      "max": [
        0.9302123785018921,
        0.9614417552947998
      ],
      "min": [
        0.38436681032180786,
        0.4877779483795166
      ],
      "type": "VEC2"
    },
    {
      "bufferView": 0,
      "byteOffset": 426096,
      "componentType": 5125,
      "count": 15648,
      "type": "SCALAR"
    },
    {
      "bufferView": 2,
      "byteOffset": 632280,
      "componentType": 5126,
      "count": 13832,
      "max": [
        0.8572705984115601,
        0.39035770297050476,
        1.4955835342407227
      ],
      "min": [
        0.030576352030038834,
        -0.9536018371582031,
        -0.3906952440738678
      ],
      "type": "VEC3"
    },
    {
      "bufferView": 2,
      "byteOffset": 798264,
      "componentType": 5126,
      "count": 13832,
      "max": [
        0.9999998807907104,
        1.0,
        1.0
      ],
      "min": [
        -0.9999611377716064,
        -1.0,
        -1.0
      ],
      "type": "VEC3"
    },
    {
      "bufferView": 1,
      "byteOffset": 210760,
      "componentType": 5126,
      "count": 13832,
      "max": [
        0.894461452960968,
        0.9855546355247498
      ],
      "min": [
        0.14005307853221893,
        0.6783560514450073
      ],
      "type": "VEC2"
    },
    {
      "bufferView": 0,
      "byteOffset": 488688,
      "componentType": 5125,
      "count": 64146,
      "type": "SCALAR"
    },
    {
      "bufferView": 2,
      "byteOffset": 964248,
      "componentType": 5126,
      "count": 4864,
      "max": [
        0.8792721629142761,
        0.21354104578495026,
        1.3517190217971802
      ],
      "min": [
        0.6641907095909119,
        -0.7768827676773071,
        -0.24687252938747406
      ],
      "type": "VEC3"
    },
    {
      "bufferView": 2,
      "byteOffset": 1022616,
      "componentType": 5126,
      "count": 4864,
      "max": [
        0.16850516200065613,
        0.9999784827232361,
        0.9999783635139465
      ],
      "min": [
        -0.9999995827674866,
        -0.9999784827232361,
        -0.9999783635139465
      ],
      "type": "VEC3"
    },
    {
      "bufferView": 1,
      "byteOffset": 321416,
      "componentType": 5126,
      "count": 4864,
      "max": [
        0.8732684850692749,
        0.8769984841346741
      ],
      "min": [
        0.7928390502929688,
        0.79607754945755
      ],
      "type": "VEC2"
    },
    {
      "bufferView": 0,
      "byteOffset": 745272,
      "componentType": 5125,
      "count": 24576,
      "type": "SCALAR"
    },
    {
      "bufferView": 2,
      "byteOffset": 1080984,
      "componentType": 5126,
      "count": 190,
      "max": [
        0.5169796347618103,
        -0.006569148972630501,
        0.9671147465705872
      ],
      "min": [
        0.49255630373954773,
        -0.6730533838272095,
        0.02615254372358322
      ],
      "type": "VEC3"
    },
    {
      "bufferView": 2,
      "byteOffset": 1083264,
      "componentType": 5126,
      "count": 190,
      "max": [
        0.9745979309082031,
        0.19838778674602509,
        0.2868197560310364
      ],
      "min": [
        0.9562662839889526,
        -0.20033136010169983,
        -0.23957304656505585
      ],
      "type": "VEC3"
    },
    {
      "bufferView": 1,
      "byteOffset": 360328,
      "componentType": 5126,
      "count": 190,
      "max": [
        0.8400745391845703,
        0.9032957553863525
      ],
      "min": [
        0.8106414079666138,
        0.8916467428207397
      ],
      "type": "VEC2"
    },
    {
      "bufferView": 0,
      "byteOffset": 843576,
      "componentType": 5125,
      "count": 534,
      "type": "SCALAR"
    },
    {
      "bufferView": 2,
      "byteOffset": 1085544,
      "componentType": 5126,
      "count": 512,
      "max": [
        0.03561186417937279,
        0.22601385414600372,
        1.3304550647735596
      ],
      "min": [
        0.034686192870140076,
        -0.7892503142356873,
        -0.22554269433021545
      ],
      "type": "VEC3"
    },
    {
      "bufferView": 2,
      "byteOffset": 1091688,
      "componentType": 5126,
      "count": 512,
      "max": [
        -0.9768791198730469,
        0.21379101276397705,
        0.21375256776809692
      ],
      "min": [
        -0.9768978953361511,
        -0.21379069983959198,
        -0.21375471353530884
      ],
      "type": "VEC3"
    },
    {
      "bufferView": 1,
      "byteOffset": 361848,
      "componentType": 5126,
      "count": 512,
      "max": [
        0.8916860222816467,
        0.755923867225647
      ],
      "min": [
        0.8475071787834167,
        0.7117453813552856
      ],
      "type": "VEC2"
    },
    {
      "bufferView": 0,
      "byteOffset": 845712,
      "componentType": 5125,
      "count": 1536,
      "type": "SCALAR"
    },
    {
      "bufferView": 2,
      "byteOffset": 1097832,
      "componentType": 5126,
      "count": 56666,
      "max": [
        0.4256031811237335,
        0.39357519149780273,
        1.4997607469558716
      ],
      "min": [
        0.29470646381378174,
        -0.9568414092063904,
        -0.3948558270931244
      ],
      "type": "VEC3"
    },
    {
      "bufferView": 2,
      "byteOffset": 1777824,
      "componentType": 5126,
      "count": 56666,
      "max": [
        0.9999998807907104,
        0.9999997019767761,
        0.9999964237213135
      ],
      "min": [
        -0.9999983310699463,
        -0.9999986290931702,
        -0.9999988675117493
      ],
      "type": "VEC3"
    },
    {
      "bufferView": 1,
      "byteOffset": 365944,
      "componentType": 5126,
      "count": 56666,
      "max": [
        0.12585243582725525,
        0.704082727432251
      ],
      "min": [
        0.03478502482175827,
        0.5970606803894043
      ],
      "type": "VEC2"
    },
    {
      "bufferView": 0,
      "byteOffset": 851856,
      "componentType": 5125,
      "count": 263424,
      "type": "SCALAR"
    }
  ],
  "asset": {
    "extras": {
      "author": "shubhankar.arch.3d (https://sketchfab.com/shubhankar.arch.3d)",
      "license": "CC-BY-4.0 (http://creativecommons.org/licenses/by/4.0/)",
      "source": "https://sketchfab.com/3d-models/earpode-low-poly-free-a35c2a1effd14ebe9531e3623bb3c4d7",
      "title": "Earpode low poly free"
    },
    "generator": "Sketchfab-14.63.0",
    "version": "2.0"
  },
  "bufferViews": [
    {
      "buffer": 0,
      "byteLength": 1905552,
      "name": "floatBufferViews",
      "target": 34963
    },
    {
      "buffer": 0,
      "byteLength": 819272,
      "byteOffset": 1905552,
      "byteStride": 8,
      "name": "floatBufferViews",
      "target": 34962
    },
    {
      "buffer": 0,
      "byteLength": 2457816,
      "byteOffset": 2724824,
      "byteStride": 12,
      "name": "floatBufferViews",
      "target": 34962
    }
  ],
  "buffers": [
    {
      "byteLength": 5182640,
      "uri": "scene.bin"
    }
  ],
  "extensionsUsed": [
    "KHR_materials_emissive_strength"
  ],
  "materials": [
    {
      "doubleSided": true,
      "name": "bottom_black",
      "pbrMetallicRoughness": {
        "baseColorFactor": [
          0.0,
          0.0,
          0.0,
          1.0
        ],
        "metallicFactor": 0.0,
        "roughnessFactor": 0.17199391171993916
      }
    },
    {
      "doubleSided": true,
      "name": "inside_red",
      "pbrMetallicRoughness": {
        "baseColorFactor": [
          0.9960189999999999,
          0.006420579999999991,
          0.0,
          1.0
        ],
        "metallicFactor": 0.0,
        "roughnessFactor": 0.23287671232876717
      }
    },
    {
      "doubleSided": true,
      "name": "pins",
      "pbrMetallicRoughness": {
        "baseColorFactor": [
          0.8,
          0.71419,
          0.0,
          1.0
        ],
        "metallicFactor": 0.0,
        "roughnessFactor": 0.8477531329880905
      }
    },
    {
      "doubleSided": true,
      "emissiveFactor": [
        0.194913,
        0.859377,
        1.0
      ],
      "name": "charging_light",
      "pbrMetallicRoughness": {
        "baseColorFactor": [
          0.0,
          0.0,
          0.0,
          1.0
        ],
        "metallicFactor": 0.0
      }
    },
    {
      "doubleSided": true,
      "name": "top_material",
      "pbrMetallicRoughness": {
        "baseColorFactor": [
          0.0,
          0.0,
          0.0,
          1.0
        ],
        "metallicFactor": 0.0,
        "roughnessFactor": 0.30593607305936077
      }
    },
    {
      "doubleSided": true,
      "name": "earpodes",
      "pbrMetallicRoughness": {
        "baseColorFactor": [
          0.0,
          0.0,
          0.0,
          1.0
        ],
        "metallicFactor": 0.0,
        "roughnessFactor": 0.36681887366818877
      }
    },
    {
      "doubleSided": true,
      "name": "earplugs",
      "pbrMetallicRoughness": {
        "baseColorFactor": [
          0.87374,
          0.0,
          0.0033604400000000183,
          1.0
        ],
        "metallicFactor": 0.0,
        "roughnessFactor": 0.9623670813388383
      }
    },
    {
      "doubleSided": true,
      "name": "charging_plug",
      "pbrMetallicRoughness": {
        "baseColorFactor": [
          0.8,
          0.595489,
          0.00642319,
          1.0
        ],
        "metallicFactor": 0.0,
        "roughnessFactor": 0.8351389979382842
      }
    },
    {
      "doubleSided": true,
      "extensions": {
        "KHR_materials_emissive_strength": {
          "emissiveStrength": 7.0
        }
      },
      "name": "touch_indicators",
      "pbrMetallicRoughness": {
        "baseColorFactor": [
          0.0,
          0.0,
          0.0,
          1.0
        ],
        "metallicFactor": 0.0
      }
    },
    {
      "doubleSided": true,
      "name": "earpodes_relaxers",
      "pbrMetallicRoughness": {
        "baseColorFactor": [
          0.7999999999999999,
          0.0016884200000000015,
          0.0,
          1.0
        ],
        "metallicFactor": 0.0
      }
    }
  ],
  "meshes": [
    {
      "name": "main body_bottom black_0",
      "primitives": [
        {
          "attributes": {
            "NORMAL": 1,
            "POSITION": 0,
            "TEXCOORD_0": 2
          },
          "indices": 3,
          "material": 0,
          "mode": 4
        }
      ]
    },
    {
      "name": "main body_inside red_0",
      "primitives": [
        {
          "attributes": {
            "NORMAL": 5,
            "POSITION": 4,
            "TEXCOORD_0": 6
          },
          "indices": 7,
          "material": 1,
          "mode": 4
        }
      ]
    },
    {
      "name": "main body_pins_0",
      "primitives": [
        {
          "attributes": {
            "NORMAL": 9,
            "POSITION": 8,
            "TEXCOORD_0": 10
          },
          "indices": 11,
          "material": 2,
          "mode": 4
        }
      ]
    },
    {
      "name": "main body_charging light_0",
      "primitives": [
        {
          "attributes": {
            "NORMAL": 13,
            "POSITION": 12,
            "TEXCOORD_0": 14
          },
          "indices": 15,
          "material": 3,
          "mode": 4
        }
      ]
    },
    {
      "name": "top _top material_0",
      "primitives": [
        {
          "attributes": {
            "NORMAL": 17,
            "POSITION": 16,
            "TEXCOORD_0": 18
          },
          "indices": 19,
          "material": 4,
          "mode": 4
        }
      ]
    },
    {
      "name": "top _inside red_0",
      "primitives": [
        {
          "attributes": {
            "NORMAL": 21,
            "POSITION": 20,
            "TEXCOORD_0": 22
          },
          "indices": 23,
          "material": 1,
          "mode": 4
        }
      ]
    },
    {
      "name": "earpods_earpodes_0",
      "primitives": [
        {
          "attributes": {
            "NORMAL": 25,
            "POSITION": 24,
            "TEXCOORD_0": 26
          },
          "indices": 27,
          "material": 5,
          "mode": 4
        }
      ]
    },
    {
      "name": "earpods_earplugs_0",
      "primitives": [
        {
          "attributes": {
            "NORMAL": 29,
            "POSITION": 28,
            "TEXCOORD_0": 30
          },
          "indices": 31,
          "material": 6,
          "mode": 4
        }
      ]
    },
    {
      "name": "earpods_charging plug_0",
      "primitives": [
        {
          "attributes": {
            "NORMAL": 33,
            "POSITION": 32,
            "TEXCOORD_0": 34
          },
          "indices": 35,
          "material": 7,
          "mode": 4
        }
      ]
    },
    {
      "name": "earpods_touch indicators_0",
      "primitives": [
        {
          "attributes": {
            "NORMAL": 37,
            "POSITION": 36,
            "TEXCOORD_0": 38
          },
          "indices": 39,
          "material": 8,
          "mode": 4
        }
      ]
    },
    {
      "name": "ear relaxers_earpodes relaxers_0",
      "primitives": [
        {
          "attributes": {
            "NORMAL": 41,
            "POSITION": 40,
            "TEXCOORD_0": 42
          },
          "indices": 43,
          "material": 9,
          "mode": 4
        }
      ]
    }
  ],
  "nodes": [
    {
      "children": [
        1
      ],
      "matrix": [
        1.0,
        0.0,
        0.0,
        0.0,
        0.0,
        2.220446049250313e-16,
        -1.0,
        0.0,
        0.0,
        1.0,
        2.220446049250313e-16,
        0.0,
        0.0,
        0.0,
        0.0,
        1.0
      ],
      "name": "Sketchfab_model"
    },
    {
      "children": [
        2
      ],
      "matrix": [
        1.0,
        0.0,
        0.0,
        0.0,
        0.0,
        0.0,
        1.0,
        0.0,
        0.0,
        -1.0,
        0.0,
        0.0,
        0.0,
        0.0,
        0.0,
        1.0
      ],
      "name": "airepods.fbx"
    },
    {
      "children": [
        3,
        8,
        11
      ],
      "name": "RootNode"
    },
    {
      "children": [
        4,
        5,
        6,
        7
      ],
      "matrix": [
        1.0,
        0.0,
        0.0,
        0.0,
        0.0,
        -1.6292067939183141e-07,
        -0.9999999999999868,
        0.0,
        0.0,
        0.9999999999999868,
        -1.6292067939183141e-07,
        0.0,
        0.0,
        0.0,
        0.0,
        1.0
      ],
      "name": "main body"
    },
    {
      "mesh": 0,
      "name": "main body_bottom black_0"
    },
    {
      "mesh": 1,
      "name": "main body_inside red_0"
    },
    {
      "mesh": 2,
      "name": "main body_pins_0"
    },
    {
      "mesh": 3,
      "name": "main body_charging light_0"
    },
    {
      "children": [
        9,
        10
      ],
      "matrix": [
        1.0,
        0.0,
        0.0,
        0.0,
        0.0,
        0.9451946118284159,
        -0.32650749726542305,
        0.0,
        0.0,
        0.32650749726542305,
        0.9451946118284159,
        0.0,
        -9.97437954453062e-09,
        0.1060495600104332,
        0.9905350208282471,
        1.0
      ],
      "name": "top "
    },
    {
      "mesh": 4,
      "name": "top _top material_0"
    },
    {
      "mesh": 5,
      "name": "top _inside red_0"
    },
    {
      "children": [
        12,
        13,
        14,
        15,
        16
      ],
      "matrix": [
        -6.036296680116082e-08,
        -1.38094365596771,
        -4.96276089425907e-08,
        0.0,
        -0.6270877455195234,
        7.162661358664973e-08,
        -1.230352254283035,
        0.0,
        1.2303522542830354,
        -3.124446600105758e-08,
        -0.6270877455195256,
        0.0,
        -0.8563442826271057,
        1.4691736698150635,
        -0.051449213176965714,
        1.0
      ],
      "name": "earpods"
    },
    {
      "mesh": 6,
      "name": "earpods_earpodes_0"
    },
    {
      "mesh": 7,
      "name": "earpods_earplugs_0"
    },
    {
      "mesh": 8,
      "name": "earpods_charging plug_0"
    },
    {
      "mesh": 9,
      "name": "earpods_touch indicators_0"
    },
    {
      "children": [
        17
      ],
      "matrix": [
        1.0,
        1.776357037923597e-15,
        -7.105427357601e-15,
        0.0,
        -1.7763568261653595e-15,
        0.9999999999999996,
        2.980232238769531e-08,
        0.0,
        7.105427410540563e-15,
        -2.980232238769531e-08,
        0.9999999999999996,
        0.0,
        7.239188448693312e-08,
        -5.960464477539063e-08,
        -5.960464477539063e-08,
        1.0
      ],
      "name": "ear relaxers"
    },
    {
      "mesh": 10,
      "name": "ear relaxers_earpodes relaxers_0"
    }
  ],
  "scene": 0,
  "scenes": [
    {
      "name": "Sketchfab_Scene",
      "nodes": [
        0
      ]
    }
  ]
}
